# xmcd
#
# Track frame offsets:
#	150
#	25979
#	33751
#	67154
#	92785
#	100613
#	117112
#	156204
#	159277
#	183708
#
# Disc length: 2943 seconds
#
# Revision: 0
# Processed by: cddbd v1.5.2PL0 Copyright (c) Steve Scherf et al.
# Submitted via: EasyCDDAExtractor 16.0.6.1
#
DISCID=780b7d0a
DTITLE=George Thorogood and The Destroyers - 2008-05-30 - Massey Hall,Toronto - 
DTITLE=BurnBoy - Disc 2
DYEAR=2008
DGENRE=Blues
TTITLE0=Get a Haircut
TTITLE1=George Banter
TTITLE2=Bad to the Bone
TTITLE3=Move It On Over
TTITLE4=Crowd
TTITLE5=Singing The Blues Again
TTITLE6=Talk Too Much
TTITLE7=Crowd 2
TTITLE8=Love Doctor
TTITLE9=Madison Blues
EXTD=
EXTT0=
EXTT1=
EXTT2=
EXTT3=
EXTT4=
EXTT5=
EXTT6=
EXTT7=
EXTT8=
EXTT9=
PLAYORDER=
